<svg xmlns="http://www.w3.org/2000/svg" viewBox="0 0 800.911 453.151">
    <path fill="#fff" d="M72.033 141.08c0-4.474 1.043-5.815 4.473-5.815h27.89c3.429 0 4.92 1.044 4.92 5.518v20.282c0 32.362-23.861 51.75-53.689 51.75C25.651 212.814 0 193.426 0 161.064V51.75C0 22.22 23.116 0 55.627 0c36.24 0 52.795 26.248 52.795 52.495v14.466c0 4.624-.896 6.562-4.773 6.562H75.91c-3.58 0-4.623-1.79-4.623-5.965v-13.87c0-8.799-5.518-17.896-15.36-17.896-9.695 0-16.257 8.202-16.257 17.598v105.437c0 9.396 5.966 18.046 16.256 18.046 10.886 0 16.107-8.65 16.107-18.046z"/>
    <path fill="#fff" d="M232.01 3.13c3.28 0 4.772 2.984 4.772 5.967v151.968c0 28.634-25.95 51.75-55.776 51.75-29.828 0-55.628-23.116-55.628-51.75V8.948c0-3.132 1.79-5.817 3.878-5.817h31.467c3.58 0 4.474 2.685 4.474 5.817v149.88c0 9.395 5.816 18.045 15.958 18.045 9.99 0 15.808-8.65 15.808-18.046V9.097c0-3.132 1.64-5.966 4.772-5.966z"/>
    <path fill="#fff" d="M256.388 8.948c0-3.58 1.64-5.817 4.923-5.817h29.826c3.43 0 4.921 2.237 4.921 5.817v164.644h50.409c2.684 0 4.175 1.492 4.175 5.07v25.502c0 3.58-1.491 5.37-4.175 5.37H261.46c-3.431 0-5.072-2.089-5.072-5.667z"/>
    <path fill="#fff" d="M435.373 34.002c0 3.58-1.79 5.369-4.325 5.369H403.31v164.942c0 3.431-1.938 5.22-4.324 5.22h-31.17c-2.535 0-4.325-1.789-4.325-5.22V39.371h-27.739c-2.535 0-4.324-1.79-4.324-5.37V8.65c0-3.579 1.79-5.518 4.324-5.518h95.297c2.535 0 4.325 1.79 4.325 5.369z"/>
    <path fill="#fff" d="M551.043 3.13c3.28 0 4.772 2.984 4.772 5.967v151.968c0 28.634-25.95 51.75-55.776 51.75-29.828 0-55.628-23.116-55.628-51.75V8.948c0-3.132 1.79-5.817 3.878-5.817h31.467c3.58 0 4.474 2.685 4.474 5.817v149.88c0 9.395 5.816 18.045 15.958 18.045 9.99 0 15.808-8.65 15.808-18.046V9.097c0-3.132 1.64-5.966 4.772-5.966z"/>
    <path fill="#fff" d="M626.837 129.15h-13.274v74.866c0 3.43-1.64 5.518-4.92 5.518h-29.827c-3.431 0-4.923-2.089-4.923-5.518V8.948c0-3.58 1.94-5.817 5.072-5.817h52.644c30.722 0 53.838 24.16 53.838 53.838v17.15c0 21.625-9.993 36.688-23.415 45.486l25.353 84.113c.746 2.684-.298 5.816-3.132 5.816h-31.169c-2.983 0-4.026-.895-4.772-4.773zm-13.274-89.78v55.926h15.063c10.738 0 17.002-7.605 17.002-17.747V56.97c0-10.737-6.86-17.598-17.15-17.598z"/>
    <path fill="#fff" d="M789.577 117.965c0 3.579-1.938 5.07-4.772 5.07h-43.548v50.557h55.33c2.386 0 4.324 1.64 4.324 5.07v25.801c0 3.43-1.938 5.07-4.324 5.07h-89.928c-3.431 0-5.072-2.088-5.072-5.666V8.947c0-3.58 1.94-5.816 5.072-5.816h89.182c2.684 0 4.175 1.79 4.175 5.518v25.353c0 3.58-1.491 5.369-4.175 5.369h-54.584v47.872h43.548c2.535 0 4.772 1.491 4.772 5.22z"/>
    <path fill="#fff" d="M111.255 396.927c0 34.302-23.713 52.645-54.136 52.943H5.07c-3.43 0-5.071-2.088-5.071-5.667V249.284c0-3.58 1.94-5.817 5.071-5.817h51.75c30.871.3 54.434 18.792 54.434 52.944zm-39.67-98.876c0-12.528-7.009-18.344-17.15-18.344H39.67V413.93h15.51c9.992-.3 16.405-8.053 16.405-18.195z"/>
    <path fill="#fff" d="M236 444.352c.747 3.43-.148 5.518-2.982 5.518h-29.826c-2.983 0-5.519-1.343-6.115-4.921l-3.878-24.906h-32.81l-3.728 24.906c-.596 3.578-3.132 4.921-5.965 4.921H120.72c-2.833 0-3.73-2.088-2.833-5.667L158.3 248.687c.896-3.578 2.686-5.22 5.669-5.22h25.8c3.131 0 4.92 1.642 5.666 5.22zm-70.838-55.925h23.265l-9.992-66.216-1.64-17.448-1.492 17.449z"/>
    <path fill="#fff" d="M296.27 364.565v79.49c0 3.727-1.342 5.815-4.474 5.815h-30.871c-3.132 0-4.325-2.088-4.325-5.816v-79.19L217.527 249.73c-1.193-3.728.15-6.264 3.281-6.264h29.38c2.684 0 4.921 1.194 5.816 5.37l18.343 65.768 1.938 10.142 2.089-10.142 18.045-65.769c.746-3.727 3.281-5.369 5.965-5.369h29.679c3.13 0 4.175 2.388 2.833 6.264z"/>
    <path fill="#fff" d="M374.514 397.375c0 14.913 9.396 19.686 17.002 19.686 9.394 0 17-6.86 17-17.748 0-14.466-7.754-21.176-26.098-36.09-31.169-25.353-45.188-35.196-45.188-69.348 0-38.775 32.065-53.538 52.943-53.538 30.871 0 52.942 21.475 52.942 54.433v8.501c0 4.176-1.043 5.667-5.815 5.667h-26.695c-3.729 0-4.325-1.491-4.325-5.667v-8.352c0-10.29-5.37-18.79-16.107-18.79-7.456 0-16.106 5.219-16.106 18.79 0 14.168 8.799 20.58 22.071 30.871 27.888 21.624 50.11 37.88 50.11 75.611 0 27.888-22.072 51.75-55.031 51.75-35.941 0-53.987-25.502-53.987-53.539v-7.904c0-5.072.895-7.159 5.071-7.159h27.143c4.175 0 5.07 1.64 5.07 6.115z"/>
</svg>
